PathFileType	4	(X/Y/Z)	C:\Users\Basilio\Documents\Thesis Gigler\squatting_fais\c3dfiles\073\SJ_pre3\markers_experimental.trc
DataRate	CameraRate	NumFrames	NumMarkers	Units	OrigDataRate	OrigDataStartFrame	OrigNumFrames
200.000000	200.000000	4	61	mm	200.000000	990	1320
Frame#	Time	FHD			LBHD			RBHD			C7			T10			CLAV			LSHO			LUUPA			LMUPA			LDUPA			LLEP			LMEP			LRAD			LUL			LRFIN			RSHO			RUPA1			RMUPA			RDUPA			RLEP			RMEP			RRAD			RUL			RUFIN			LASI			RASI			USACR			LSACR			RSACR			LTHI1			LTHI2			LTHI3			LTHI4			LLFC			LMFC			LTIB1			LTIB2			LTIB3			LTIB4			LLMAL			LMMAL			LHEE			LMT1			LMT2			LMT5			RTHI			RTHI2			RTHI3			RTHI4			RLFC			RMFC			RTIB1			RTIB2			RTIB3			RTIB4			RLMAL			RMMAL			RHEE			RMT1			RMT2			RMT5			
		X1	Y1	Z1	X2	Y2	Z2	X3	Y3	Z3	X4	Y4	Z4	X5	Y5	Z5	X6	Y6	Z6	X7	Y7	Z7	X8	Y8	Z8	X9	Y9	Z9	X10	Y10	Z10	X11	Y11	Z11	X12	Y12	Z12	X13	Y13	Z13	X14	Y14	Z14	X15	Y15	Z15	X16	Y16	Z16	X17	Y17	Z17	X18	Y18	Z18	X19	Y19	Z19	X20	Y20	Z20	X21	Y21	Z21	X22	Y22	Z22	X23	Y23	Z23	X24	Y24	Z24	X25	Y25	Z25	X26	Y26	Z26	X27	Y27	Z27	X28	Y28	Z28	X29	Y29	Z29	X30	Y30	Z30	X31	Y31	Z31	X32	Y32	Z32	X33	Y33	Z33	X34	Y34	Z34	X35	Y35	Z35	X36	Y36	Z36	X37	Y37	Z37	X38	Y38	Z38	X39	Y39	Z39	X40	Y40	Z40	X41	Y41	Z41	X42	Y42	Z42	X43	Y43	Z43	X44	Y44	Z44	X45	Y45	Z45	X46	Y46	Z46	X47	Y47	Z47	X48	Y48	Z48	X49	Y49	Z49	X50	Y50	Z50	X51	Y51	Z51	X52	Y52	Z52	X53	Y53	Z53	X54	Y54	Z54	X55	Y55	Z55	X56	Y56	Z56	X57	Y57	Z57	X58	Y58	Z58	X59	Y59	Z59	X60	Y60	Z60	X61	Y61	Z61	

991	4.95	-190.2056579589844	1684.664794921875	-956.381286621094	-319.0177917480469	1633.35498046875	-982.3362426757815	-340.7701721191407	1612.815063476563	-849.9993286132815	-360.0204162597657	1525.046264648438	-913.9573364257815	-428.7142639160157	1186.093017578125	-922.305358886719	-231.5610656738282	1438.0927734375	-917.1104125976565	-268.2000122070313	1466.920654296875	-1091.10302734375	-354.2442321777344	1375.689208984375	-1202.867797851563	-336.4805603027344	1328.240234375	-1205.894897460938	-387.4027709960939	1326.918579101563	-1241.966552734375	-423.2157592773439	1240.615112304688	-1288.624755859375	-491.8952941894532	1226.87451171875	-1243.624267578125	-355.3081665039063	1025.153686523438	-1146.50537109375	-322.8843383789063	1007.690368652344	-1210.71337890625	-312.9124450683594	1010.031372070313	-1102.82568359375	-249.0953216552735	1457.036010742188	-743.5158691406251	-345.8243713378907	1370.016479492188	-609.3262939453126	-332.3014526367188	1322.503662109375	-605.2445068359376	-382.1107177734376	1324.271850585938	-571.6053466796876	-410.9341125488282	1244.619262695313	-531.1450195312501	-482.4202270507814	1235.761962890625	-590.3111572265626	-385.342742919922	1022.59619140625	-679.1736450195314	-342.4789733886719	1001.958251953125	-620.0739135742189	-323.7641296386719	1014.044738769531	-721.4868164062501	-269.5658264160157	1011.885192871094	-1050.544921875	-266.8773803710938	1006.46875	-795.697937011719	-448.527557373047	1076.181274414063	-918.7427368164065	-459.8526611328126	1047.95849609375	-946.239685058594	-463.6094665527345	1046.44384765625	-890.5694580078127	-372.3633422851563	715.5921020507814	-1144.841552734375	-350.2868957519532	633.7924804687501	-1143.834716796875	-307.3949890136719	627.2427368164064	-1119.726928710938	-387.754119873047	587.3776855468751	-1141.774169921875	-397.4100952148439	530.8135986328126	-1153.689697265625	-384.1778564453126	498.1488342285157	-1019.901428222656	-356.5596618652344	326.8473510742188	-1145.052490234375	-421.4666137695314	297.1024780273438	-1193.859741210938	-379.9407958984376	285.8551940917969	-1181.520751953125	-377.7228088378907	202.8444061279297	-1161.178955078125	-448.6130371093751	90.81439208984376	-1196.038330078125	-424.9050598144532	101.780746459961	-1112.034301757813	-500.8374328613282	50.832088470459	-1154.451538085938	-271.1944885253907	54.12488174438478	-1151.654052734375	-275.7008056640626	54.37401199340822	-1189.323364257813	-317.6500854492188	36.54170989990235	-1240.908447265625	-380.5443115234376	795.795104980469	-710.1257324218751	-351.7866516113282	736.7341308593751	-699.5698852539064	-318.0520324707032	734.3966674804689	-702.7431640625001	-387.5736083984376	661.2568969726564	-714.5228271484376	-380.1175842285157	510.9617309570314	-711.7400512695314	-368.7720031738282	481.924774169922	-838.2362060546877	-339.2423706054688	337.9302062988282	-776.4959106445315	-368.5863952636719	265.8869628906251	-700.5795898437501	-343.1452026367188	258.5996093750001	-741.3313598632814	-360.4443664550782	210.1989898681641	-768.3327636718752	-416.761444091797	87.20298004150392	-701.8265380859376	-403.5364990234376	99.49594879150393	-790.4053955078127	-481.2478942871095	43.95206451416016	-753.5709228515626	-250.4999389648438	54.87220001220705	-745.4563598632814	-253.9617767333985	53.56475067138673	-704.6112670898439	-297.8523254394532	34.37324905395509	-657.3158569335939	
992	4.955	-191.0131988525391	1684.932739257813	-956.1509399414065	-319.7357788085938	1633.5517578125	-982.3120727539065	-341.9801635742188	1612.73974609375	-849.9356689453127	-361.0483093261719	1524.985961914063	-914.1350708007815	-429.0852050781251	1185.861083984375	-922.389099121094	-232.5543975830079	1438.365234375	-917.1105957031252	-268.9576721191407	1467.115844726563	-1091.112426757813	-354.8741149902344	1375.645263671875	-1202.538330078125	-337.1260070800782	1328.240112304688	-1205.610595703125	-388.0855407714845	1326.65771484375	-1241.369873046875	-423.6256713867189	1240.278930664063	-1288.36376953125	-492.1379699707032	1226.1748046875	-1243.139892578125	-355.1859130859376	1024.807373046875	-1146.242553710938	-322.8671264648438	1007.314331054688	-1210.455322265625	-312.7344360351563	1009.8095703125	-1102.574584960938	-250.0555572509766	1457.253540039063	-743.4767456054689	-346.5129699707032	1370.101806640625	-609.3505859375001	-332.8876647949219	1322.584838867188	-605.4022216796876	-382.6035766601563	1324.250732421875	-571.6596679687501	-411.3371582031251	1244.508422851563	-531.1529541015626	-483.0718078613282	1235.469482421875	-590.1498413085939	-385.2636108398439	1022.610107421875	-679.0509033203126	-342.1737976074219	1002.119567871094	-619.8742675781251	-323.6161804199219	1014.331115722656	-721.4335327148439	-269.5730895996094	1011.173828125	-1050.80322265625	-267.2734069824219	1006.362060546875	-795.7916259765627	-448.5203247070314	1076.22900390625	-918.743591308594	-460.0521545410157	1048.0908203125	-946.2910156250002	-463.7227783203126	1046.530029296875	-890.642272949219	-372.6277465820313	715.8277587890626	-1145.053100585938	-350.7769470214844	633.9902954101564	-1143.91357421875	-307.8578796386719	627.4346313476564	-1119.931884765625	-388.3377380371095	587.6660156250001	-1141.716918945313	-398.2782592773439	531.0682373046876	-1153.5419921875	-384.8493041992189	498.4421386718751	-1019.881774902344	-357.0529785156251	327.0443725585938	-1144.993408203125	-421.8687438964845	297.1625061035157	-1193.785400390625	-380.3188781738282	286.0777587890626	-1181.53173828125	-377.9928588867188	202.9882202148438	-1161.153198242188	-448.6192932128907	90.83090972900392	-1195.981201171875	-424.913787841797	101.7960510253907	-1112.03955078125	-500.6473693847657	50.74877166748048	-1154.625366210938	-271.2696838378907	54.14724349975587	-1151.611083984375	-275.7421569824219	54.38103485107423	-1189.263305664063	-317.6160583496094	36.59433746337891	-1240.8759765625	-380.2368469238282	795.945251464844	-709.1190185546876	-351.6473999023438	736.7830200195314	-698.8448486328126	-317.9714355468751	734.3043212890626	-702.1462402343751	-387.9107666015626	661.4056396484376	-713.6727294921876	-381.1569519042969	510.9616699218751	-711.4440307617189	-370.4023132324219	482.2510375976564	-837.9492797851565	-340.2693786621094	338.2320556640626	-776.268737792969	-369.3571472167969	266.0270690917969	-700.4167480468751	-343.7687683105469	258.8839111328126	-741.0965576171876	-360.9172668457032	210.4114837646485	-768.1569824218752	-416.8254394531251	87.19332122802736	-701.8226928710939	-403.6282043457032	99.55194854736331	-790.2929687500002	-481.2542724609376	43.94221115112305	-753.5750732421876	-250.5080108642579	54.86620712280275	-745.4772338867189	-253.965805053711	53.56428527832033	-704.6108398437501	-297.8505859375001	34.36204910278321	-657.2808227539064	
993	4.96	-192.5236968994141	1685.081665039063	-955.9595947265627	-320.6787109375001	1633.669677734375	-982.289001464844	-343.0550842285157	1612.658569335938	-849.9595947265627	-362.1143188476563	1524.944946289063	-914.2598266601565	-429.4876708984376	1185.716796875	-922.492858886719	-233.5825805664063	1438.64404296875	-917.1250000000002	-269.7270202636719	1467.386840820313	-1091.09619140625	-355.6341857910157	1375.781982421875	-1202.380737304688	-337.6254577636719	1328.46875	-1205.479248046875	-388.7582092285157	1326.734985351563	-1241.010131835938	-424.0509033203126	1240.16748046875	-1288.06396484375	-492.4766540527345	1225.819580078125	-1242.707763671875	-355.1290893554688	1024.628784179688	-1145.924926757813	-322.8677062988282	1007.082580566406	-1210.212280273438	-312.7057800292969	1009.813659667969	-1102.279174804688	-251.0747833251954	1457.66943359375	-743.6175537109376	-347.2296752929688	1370.357177734375	-609.4952392578126	-333.5080871582032	1322.855834960938	-605.5593872070314	-383.2008972167969	1324.447265625	-571.7054443359376	-411.7640075683595	1244.630615234375	-531.1405029296876	-483.6522827148439	1235.417114257813	-589.9578857421876	-385.0691528320314	1022.803649902344	-679.0045776367189	-341.9631652832032	1002.613220214844	-619.3886108398439	-323.4418029785157	1014.807189941406	-721.3962402343751	-269.6523437500001	1010.666198730469	-1050.989379882813	-267.4016418457032	1006.332336425781	-795.4300537109377	-448.5194396972657	1076.39453125	-918.6680297851565	-460.3076477050782	1048.34765625	-946.2510986328127	-463.8541259765626	1046.63623046875	-890.5139160156252	-372.8656311035157	716.1097412109376	-1145.240844726563	-351.2140197753907	634.1679687500001	-1143.995361328125	-308.1803588867188	627.6210937500001	-1120.056030273438	-388.7489013671876	587.8677978515626	-1141.57080078125	-399.0418395996095	531.2755126953126	-1153.335205078125	-385.5705871582032	498.6744079589845	-1019.661315917969	-357.4329223632813	327.1678466796876	-1144.95751953125	-422.3523559570314	297.2937927246094	-1193.624633789063	-380.8128967285157	286.2060546875001	-1181.573852539063	-378.2731018066407	203.0944519042969	-1161.14892578125	-448.688934326172	90.85216522216798	-1195.895141601563	-424.9263610839845	101.7908782958985	-1111.964965820313	-500.6420898437501	50.78049468994142	-1154.576782226563	-271.1713867187501	54.13309478759767	-1151.669311523438	-275.7539062500001	54.38702392578126	-1189.275024414063	-317.6123657226563	36.58555984497071	-1240.837890625	-380.0461425781251	796.1033325195315	-708.3078613281251	-351.4583129882813	736.8175659179689	-698.2322998046876	-317.9193725585938	734.2163085937501	-701.7127685546876	-388.2217712402345	661.5530395507814	-712.9197387695314	-382.2017211914063	511.0692749023439	-711.2066650390626	-372.5115356445313	482.2153320312501	-838.278503417969	-341.1326599121094	338.3621826171876	-776.111511230469	-370.0856628417969	266.2258300781251	-700.2696533203126	-344.3538208007813	259.1495056152344	-740.8082885742189	-361.4172973632813	210.6170806884766	-768.0187988281252	-416.8956909179689	87.18792724609376	-701.7593383789064	-403.7125549316407	99.58097076416018	-790.221618652344	-481.2464904785157	43.95330429077149	-753.5717773437501	-250.5282135009766	54.85884857177736	-745.4973754882814	-253.9738006591797	53.56637573242189	-704.5938720703126	-297.8467407226563	34.35956573486329	-657.3110351562501	
994	4.965	-193.8780822753907	1685.167602539063	-955.705261230469	-321.7139892578126	1633.8857421875	-982.3258056640627	-344.3789672851563	1612.64501953125	-850.1182250976565	-363.2965393066407	1524.846069335938	-914.413757324219	-429.8606567382814	1185.557250976563	-922.5803833007815	-234.5856475830079	1438.957885742188	-917.0653076171877	-270.4631958007813	1467.641967773438	-1090.932373046875	-356.4364013671876	1376.03515625	-1202.1943359375	-338.0366821289063	1328.775634765625	-1205.432495117188	-389.355682373047	1326.898681640625	-1240.723999023438	-424.5158996582032	1240.18505859375	-1287.853149414063	-492.8382263183595	1225.650756835938	-1242.296630859375	-355.0751037597657	1024.667236328125	-1145.631591796875	-322.8170166015626	1007.160949707031	-1209.818115234375	-312.6226806640626	1010.015930175781	-1101.952270507813	-252.2283630371094	1458.129028320313	-743.8016357421876	-347.9709777832032	1370.786499023438	-609.6499023437501	-334.1732482910157	1323.340942382813	-605.6848754882814	-383.8688659667969	1324.841430664063	-571.7379760742189	-412.2345581054689	1245.021240234375	-531.2008666992189	-484.2113647460939	1235.617431640625	-589.8804931640626	-384.8137817382814	1023.235595703125	-678.8788452148439	-341.7486267089844	1003.291381835938	-619.2074584960939	-323.3064880371094	1015.373657226563	-721.3876953125001	-269.7226562500001	1010.343811035156	-1051.050537109375	-267.4508361816407	1006.406799316406	-795.2300415039065	-448.6197814941407	1076.69189453125	-918.357604980469	-460.4158935546876	1048.590576171875	-946.0444335937502	-464.0021057128907	1046.849365234375	-890.3449707031252	-373.0911254882813	716.2125244140626	-1145.369506835938	-351.8936157226563	634.0983886718751	-1143.53369140625	-308.4807128906251	627.6254272460939	-1120.116333007813	-389.2426147460939	587.9905395507814	-1141.344848632813	-399.637908935547	531.3961181640626	-1153.1240234375	-386.2138977050782	498.9272460937501	-1019.390747070313	-357.9148864746094	327.3201599121094	-1144.917846679688	-422.8690490722657	297.4396972656251	-1193.424072265625	-381.3180847167969	286.2672729492188	-1181.4697265625	-378.4771728515626	203.1975860595704	-1161.2001953125	-448.6222534179689	90.96046447753908	-1195.825805664063	-424.921844482422	101.7595367431641	-1111.955932617188	-500.6001281738282	50.80456924438478	-1154.484741210938	-271.1163330078126	54.1539878845215	-1151.5859375	-275.6863403320313	54.43540573120119	-1189.278686523438	-317.5679016113282	36.67194366455079	-1240.789794921875	-379.8086853027344	796.226257324219	-707.6000366210939	-351.3576049804688	736.8679199218751	-697.7489013671876	-317.8278198242188	734.1282958984376	-701.3320922851564	-388.4701232910157	661.7422485351564	-712.3261108398439	-383.0946655273438	511.159149169922	-710.8388061523439	-374.0773925781251	483.1388549804689	-837.8012695312502	-341.9209594726563	338.6452636718751	-775.9663696289065	-370.7080993652344	266.4369812011719	-700.1060180664064	-344.7340698242188	259.4886474609376	-740.5121459960939	-361.8387451171876	210.804672241211	-767.9471435546876	-416.9380187988282	87.16854095458986	-701.7545166015626	-403.7974548339845	99.70374298095706	-790.154724121094	-481.2470703125001	43.93622207641602	-753.6007690429689	-250.5240325927735	54.87905883789064	-745.4688720703126	-253.9712524414063	53.5633010864258	-704.5541381835939	-297.8525695800782	34.35509490966798	-657.2879638671876	
